<?xml version="1.0" encoding="UTF-8" standalone="no"?>
<!DOCTYPE svg PUBLIC "-//W3C//DTD SVG 1.1//EN" "http://www.w3.org/Graphics/SVG/1.1/DTD/svg11.dtd">
<svg width="100%" height="100%" viewBox="0 0 84 140" version="1.1" xmlns="http://www.w3.org/2000/svg" xmlns:xlink="http://www.w3.org/1999/xlink" xml:space="preserve" xmlns:serif="http://www.serif.com/" style="fill-rule:evenodd;clip-rule:evenodd;stroke-linecap:round;stroke-linejoin:round;stroke-miterlimit:1.5;">
    <g transform="matrix(1,0,0,1,-2974,-1195)">
        <g transform="matrix(-0.460933,0.0515223,-0.0515223,-0.460933,4159.83,1474.83)">
            <path d="M2403.76,640.726L2403.76,642.187C2403.76,647.974 2408.45,652.666 2414.24,652.67C2419.82,652.674 2425.55,652.678 2425.55,652.678L2417.08,661.267L2426.05,669.34L2433.71,661.666C2433.71,661.666 2433.71,666.656 2433.71,671.745C2433.71,677.701 2438.44,682.579 2444.4,682.755C2445.32,682.782 2445.91,682.799 2445.91,682.799L2445.98,640.795L2403.76,640.726Z" style="fill:white;"/>
        </g>
        <g transform="matrix(0.711702,0.0664153,-0.0760331,0.814765,964.069,41.7808)">
            <path d="M3005.93,1200.51C3015.51,1214.89 3036.99,1235.79 3022.32,1272.48C3015.95,1288.39 3011.08,1289.25 3008.78,1293.85" style="fill:none;stroke:white;stroke-width:7.16px;"/>
        </g>
    </g>
</svg>
